<svg width="34" height="34" viewBox="0 0 34 34" fill="none" xmlns="http://www.w3.org/2000/svg">
<g id="nuxtjs">
<g id="nuxtjs_2">
<path id="Vector" d="M22.0155 22.6192L29.6024 17.9246C29.8433 17.7755 30.0412 17.5662 30.176 17.3176C30.3108 17.0691 30.3777 16.7901 30.3702 16.5087C30.3626 16.2273 30.2808 15.9535 30.1329 15.7147C29.985 15.476 29.7763 15.2807 29.5277 15.1486L19.0204 9.55468C18.772 9.42238 18.4925 9.35783 18.21 9.36753C17.9274 9.37722 17.6519 9.46081 17.4109 9.60989C17.17 9.75897 16.9722 9.96828 16.8375 10.2168C16.7027 10.4653 16.6357 10.7442 16.6433 11.0256L16.7253 14.0697L11.4702 11.2696C11.2217 11.1374 10.9421 11.0729 10.6595 11.0826C10.377 11.0924 10.1014 11.176 9.86039 11.3251C9.61943 11.4742 9.42161 11.6835 9.28677 11.9321C9.15196 12.1806 9.08488 12.4596 9.09232 12.7409L9.48746 27.5491C9.49477 27.8304 9.57638 28.1044 9.72405 28.3432C9.87172 28.5821 10.0803 28.7776 10.3287 28.9099C10.5772 29.0423 10.8567 29.1068 11.1393 29.0971C11.4219 29.0874 11.6975 29.0038 11.9385 28.8546L16.7009 25.9078C18.5877 24.7402 19.471 23.0577 19.4368 20.8626L19.2925 15.4341L19.2163 12.5283L26.922 16.6301L21.9401 19.7129L22.0155 22.6192ZM15.3005 23.8183L11.9765 25.8741L11.6669 14.2396L16.7985 16.9773L16.9026 20.8651C16.9101 22.2984 16.4222 23.1242 15.3005 23.8183Z" fill="#00DC82"/>
</g>
</g>
</svg>
