<svg width="24" height="24" viewBox="0 0 24 24" fill="none" xmlns="http://www.w3.org/2000/svg">
<g id="python">
<g id="python_2">
<path id="Vector" d="M12.0258 2.79077C7.3028 2.79077 7.5977 4.83895 7.5977 4.83895L7.60294 6.96094H12.11V7.59801H5.81279C5.81279 7.59801 2.79053 7.25525 2.79053 12.0207C2.79053 16.7864 5.42843 16.6174 5.42843 16.6174H7.00273V14.4059C7.00273 14.4059 6.91786 11.768 9.59853 11.768H14.0688C14.0688 11.768 16.5803 11.8086 16.5803 9.34073V5.26025C16.5803 5.26025 16.9617 2.79077 12.0258 2.79077ZM9.54061 4.21776C9.64712 4.21767 9.7526 4.23857 9.85101 4.27929C9.94943 4.32 10.0389 4.37972 10.1142 4.45503C10.1895 4.53034 10.2492 4.61977 10.2899 4.71818C10.3306 4.8166 10.3515 4.92208 10.3514 5.02858C10.3515 5.13509 10.3306 5.24057 10.2899 5.33899C10.2492 5.4374 10.1895 5.52682 10.1142 5.60214C10.0389 5.67745 9.94943 5.73717 9.85101 5.77788C9.7526 5.81859 9.64712 5.8395 9.54061 5.83941C9.43411 5.8395 9.32863 5.81859 9.23021 5.77788C9.13179 5.73717 9.04237 5.67745 8.96706 5.60214C8.89175 5.52682 8.83203 5.4374 8.79131 5.33899C8.7506 5.24057 8.72969 5.13509 8.72979 5.02858C8.72969 4.92208 8.7506 4.8166 8.79131 4.71818C8.83203 4.61977 8.89175 4.53034 8.96706 4.45503C9.04237 4.37972 9.13179 4.32 9.23021 4.27929C9.32863 4.23857 9.43411 4.21767 9.54061 4.21776Z" fill="url(#paint0_linear_548_1735)"/>
<path id="Vector_2" d="M12.16 21.2986C16.883 21.2986 16.5881 19.2504 16.5881 19.2504L16.5829 17.1285H12.0757V16.4914H18.3729C18.3729 16.4914 21.3952 16.8341 21.3952 12.0685C21.3952 7.30292 18.7573 7.47193 18.7573 7.47193H17.183V9.6833C17.183 9.6833 17.2679 12.3212 14.5872 12.3212H10.117C10.117 12.3212 7.60547 12.2806 7.60547 14.7486V18.8292C7.60547 18.8292 7.22409 21.2986 12.1599 21.2986H12.16ZM14.6452 19.8717C14.5387 19.8718 14.4332 19.8509 14.3348 19.8102C14.2364 19.7695 14.147 19.7098 14.0717 19.6344C13.9963 19.5591 13.9366 19.4697 13.8959 19.3713C13.8552 19.2729 13.8343 19.1674 13.8344 19.0609C13.8343 18.9544 13.8552 18.8489 13.8959 18.7505C13.9366 18.652 13.9963 18.5626 14.0716 18.4873C14.1469 18.412 14.2364 18.3522 14.3348 18.3115C14.4332 18.2708 14.5387 18.2499 14.6452 18.25C14.7517 18.2499 14.8572 18.2708 14.9556 18.3115C15.054 18.3522 15.1434 18.412 15.2188 18.4873C15.2941 18.5626 15.3538 18.652 15.3945 18.7504C15.4352 18.8488 15.4561 18.9543 15.456 19.0608C15.4561 19.1673 15.4352 19.2728 15.3945 19.3712C15.3538 19.4696 15.2941 19.5591 15.2188 19.6344C15.1434 19.7097 15.054 19.7694 14.9556 19.8101C14.8572 19.8508 14.7517 19.8717 14.6452 19.8716V19.8717Z" fill="url(#paint1_linear_548_1735)"/>
</g>
</g>
<defs>
<linearGradient id="paint0_linear_548_1735" x1="4.57843" y1="4.45544" x2="13.7983" y2="13.5834" gradientUnits="userSpaceOnUse">
<stop stop-color="#387EB8"/>
<stop offset="1" stop-color="#366994"/>
</linearGradient>
<linearGradient id="paint1_linear_548_1735" x1="10.2376" y1="10.3167" x2="20.1388" y2="19.6766" gradientUnits="userSpaceOnUse">
<stop stop-color="#FFE052"/>
<stop offset="1" stop-color="#FFC331"/>
</linearGradient>
</defs>
</svg>
