<svg width="24" height="24" viewBox="0 0 24 24" fill="none" xmlns="http://www.w3.org/2000/svg">
<g id="tailwindcss">
<g id="tailwindcss_2">
<path id="Vector" d="M12.1082 5.62158C9.2252 5.62158 7.42345 7.06266 6.70263 9.94455C7.78385 8.50347 9.04513 7.96327 10.4865 8.3234C11.309 8.52888 11.8967 9.12559 12.5475 9.78584C13.6074 10.8614 14.8341 12.1062 17.5137 12.1062C20.3964 12.1062 22.1984 10.6651 22.919 7.78293C21.838 9.22401 20.5768 9.76448 19.1351 9.40435C18.3129 9.19886 17.7251 8.60215 17.0744 7.94191C16.0145 6.86637 14.7876 5.62158 12.1082 5.62158ZM6.70263 12.1062C3.81993 12.1062 2.0179 13.5472 1.29736 16.4294C2.37831 14.9883 3.63959 14.4479 5.08122 14.8083C5.90342 15.014 6.4912 15.6104 7.14199 16.2704C8.20185 17.346 9.42879 18.591 12.1082 18.591C14.9911 18.591 16.7929 17.1499 17.5137 14.2678C16.4325 15.7089 15.1712 16.2493 13.7299 15.8889C12.9074 15.6837 12.3196 15.0867 11.6688 14.4268C10.609 13.3512 9.38229 12.1062 6.70263 12.1062Z" fill="#06B6D4"/>
</g>
</g>
</svg>
