<svg width="24" height="24" viewBox="0 0 24 24" fill="none" xmlns="http://www.w3.org/2000/svg">
<g id="vitejs">
<g id="vitejs_2">
<path id="Vector" d="M23.4987 3.91489L12.7531 23.4629C12.5312 23.8665 11.9612 23.8689 11.736 23.4673L0.777377 3.9167C0.532004 3.47909 0.899884 2.94893 1.38741 3.03765L12.1446 4.99366C12.2132 5.00613 12.2835 5.00601 12.3521 4.99329L22.8842 3.04038C23.3702 2.95029 23.7397 3.47636 23.4987 3.91489Z" fill="url(#paint0_linear_548_1729)"/>
<path id="Vector_2" d="M17.2688 0.471801L9.31681 2.05701C9.25328 2.06967 9.19568 2.10346 9.15307 2.15305C9.11047 2.20265 9.08527 2.26524 9.08145 2.331L8.59231 10.7357C8.58962 10.7818 8.59753 10.8279 8.61541 10.8704C8.63329 10.9128 8.66065 10.9504 8.69532 10.9802C8.72999 11.01 8.77101 11.0312 8.81513 11.0421C8.85924 11.0529 8.90524 11.0532 8.94947 11.0428L11.1635 10.523C11.3706 10.4744 11.5578 10.66 11.5152 10.8719L10.8574 14.1488C10.8132 14.3693 11.0166 14.5578 11.2283 14.4924L12.5958 14.0698C12.8078 14.0043 13.0115 14.1934 12.9667 14.4141L11.9214 19.5613C11.856 19.8833 12.2769 20.0588 12.4524 19.7828L12.5697 19.5985L19.0495 6.44264C19.1581 6.22238 18.9709 5.97121 18.7332 6.01793L16.4542 6.46537C16.2401 6.50737 16.0579 6.30447 16.1183 6.09138L17.6057 0.845695C17.6662 0.632067 17.4833 0.429076 17.2689 0.471801H17.2688Z" fill="url(#paint1_linear_548_1729)"/>
</g>
</g>
<defs>
<linearGradient id="paint0_linear_548_1729" x1="0.509812" y1="4.6148" x2="12.3584" y2="20.4321" gradientUnits="userSpaceOnUse">
<stop stop-color="#41D1FF"/>
<stop offset="1" stop-color="#BD34FE"/>
</linearGradient>
<linearGradient id="paint1_linear_548_1729" x1="13.1417" y1="0.902216" x2="15.6073" y2="17.528" gradientUnits="userSpaceOnUse">
<stop stop-color="#FFEA83"/>
<stop offset="0.083" stop-color="#FFDD35"/>
<stop offset="1" stop-color="#FFA800"/>
</linearGradient>
</defs>
</svg>
